<?xml version="1.0" encoding="UTF-8"?>
<!DOCTYPE svg PUBLIC "-//W3C//DTD SVG 1.1//EN" "http://www.w3.org/Graphics/SVG/1.1/DTD/svg11.dtd">
<!-- Creator: CorelDRAW 2017 -->
<svg xmlns="http://www.w3.org/2000/svg" xml:space="preserve" width="36.7243mm" height="36.3686mm" version="1.1" style="shape-rendering:geometricPrecision; text-rendering:geometricPrecision; image-rendering:optimizeQuality; fill-rule:evenodd; clip-rule:evenodd"
viewBox="0 0 2844 2816"
 xmlns:xlink="http://www.w3.org/1999/xlink">
 <defs>
  <style type="text/css">
   <![CDATA[
    .fil1 {fill:#EC5A1E}
    .fil2 {fill:#FFFEFE}
    .fil0 {fill:white}
   ]]>
  </style>
 </defs>
 <g id="Слой_x0020_1">
  <metadata id="CorelCorpID_0Corel-Layer"/>
  <ellipse class="fil0" cx="1422" cy="1408" rx="1422" ry="1408"/>
  <g id="_2510599697472">
   <path class="fil1" d="M2116 878c85,136 230,81 114,520 -162,619 -579,884 -1272,905 1051,-777 537,-1374 983,-1417 36,-175 40,-265 221,-273l-46 265zm-796 -781l209 0c167,12 330,55 477,127 426,210 683,616 728,1049l0 269c-35,345 -209,685 -542,936 -63,48 -109,76 -186,114 -146,72 -310,114 -477,127l-209 0c-242,-18 -479,-99 -667,-241 -421,-318 -542,-654 -542,-1179 0,-392 249,-740 542,-961 189,-143 425,-223 667,-241zm195 1216c-218,55 -492,-96 -565,-186 -48,305 187,336 238,436 144,281 -481,137 -481,137l-4 369 -118 76c-24,-288 -49,-470 105,-645l286 117c-59,-291 -380,-352 -112,-987 61,-145 62,-104 110,-132 1,157 -35,321 36,450 60,109 171,184 313,213 -26,-119 -66,-221 -57,-356 74,-93 131,-168 290,-159 -8,24 -251,300 -99,512 14,20 59,42 68,93 22,120 3,18 -10,62z"/>
   <path class="fil2" d="M2161 612c-180,8 -184,98 -221,273 -446,43 68,640 -983,1417 694,-21 1110,-286 1272,-905 115,-439 -29,-384 -114,-520l46 -265z"/>
   <path class="fil2" d="M1514 1312c13,-44 32,58 10,-62 -9,-51 -54,-73 -68,-93 -152,-212 90,-488 99,-512 -160,-9 -216,66 -290,159 -10,135 30,238 57,356 -142,-28 -253,-104 -313,-213 -71,-129 -35,-293 -36,-450 -48,28 -49,-13 -110,132 -268,635 53,696 112,987l-286 -117c-154,175 -129,357 -105,645l118 -76 4 -369c0,0 625,144 481,-137 -51,-100 -287,-131 -238,-436 73,91 347,241 565,186z"/>
  </g>
 </g>
</svg>
